<?xml version="1.0" encoding="UTF-8"?>
<svg xmlns="http://www.w3.org/2000/svg" viewBox="0 0 334 111">
  <defs>
    <style>
      .cls-1 {
        fill: #fff;
      }
    </style>
  </defs>
  <g id="Layer_1" data-name="Layer 1">
    <path class="cls-1" d="M136.4,0c.44.59.07,1.18-.07,1.81-1.55,7.01-3.57,14.27-5.49,21.21-7.89,28.5-17.64,56.5-29.04,83.75-.34.46-.89.31-1.09-.16l-22.01-45.74-14.24,49.74c-.15.35-.98.22-1.22-.27-.25-.52-.55-1.86-.73-2.52-1.12-4.25-1.99-8.59-3.12-12.85-2.23-8.42-4.85-16.74-7.18-25.13-.12-.13-.95.33-1.17.45-11.32,6.27-22.83,12.07-34.47,17.71-4.56,2.21-9.65,5.12-14.31,6.91-.65.25-1.54.71-1.99-.02L29.6,7.98c.65-.93,1.13-.31,1.5.49l13.41,37.74,1.07,2.67,18.61-40.16c1.1-.2,1.49,1.35,1.87,2.24,2.31,5.37,4.01,11.02,6.31,16.4l4.92,13.79c18.13-11.92,36.01-24.22,53.32-37.3.28-.22.49-.51.77-.73,1.34-1.01,2.89-1.82,3.99-3.13h1Z"/>
  </g>
  <g id="Layer_2" data-name="Layer 2">
    <path class="cls-1" d="M330.04,53.96l-22.88-2.22-22.55-2.19c-.9-2.42-2.35-4.69-4.25-6.77l13.6-12.07,13.81-12.26c1.76-1.55-.94-3.33-3.3-2.17l-18.56,9.12-18.29,8.98c-3.15-1.25-6.6-2.21-10.27-2.8l-3.31-14.89-3.36-15.11c-.43-1.93-4.23-1.93-4.66,0l-3.36,15.11-3.31,14.89c-3.66.6-7.11,1.55-10.26,2.8l-18.29-8.98-18.56-9.12c-2.36-1.16-5.05.62-3.29,2.17l13.8,12.26,13.61,12.07c-1.9,2.08-3.35,4.35-4.26,6.77l-22.55,2.19-22.88,2.22c-2.91.28-2.91,2.8,0,3.08l22.88,2.22,22.55,2.18c.91,2.42,2.35,4.7,4.26,6.78l-13.61,12.07-13.8,12.26c-1.76,1.55.93,3.33,3.29,2.17l18.56-9.12,18.29-8.99c3.15,1.26,6.6,2.21,10.26,2.81l3.31,14.89,3.36,15.11c.43,1.93,4.23,1.93,4.66,0l3.36-15.11,3.31-14.89c3.67-.6,7.11-1.55,10.27-2.81l18.29,8.99,18.56,9.12c2.36,1.16,5.06-.62,3.3-2.17l-13.81-12.26-13.6-12.07c1.9-2.08,3.35-4.36,4.25-6.78l22.55-2.18,22.88-2.22c2.91-.28,2.91-2.8,0-3.08h0ZM229.64,61.05c-6.21-3.77-4.8-11.39-3.91-14.49.05-.17.17-.3.33-.37.08-.03.16-.05.23-.05.09,0,.19.02.27.06l2.85,1.5c-.17.77-.24,1.58-.19,2.42.26,4.35,3.83,7.88,8.18,8.08,2.66.12,5.07-.96,6.73-2.75l.97.51c.14.08.25.2.29.35.05.16.03.32-.05.46-1.15,2.03-3.98,4.62-7.53,5.56-2.81.74-5.56.3-8.16-1.28ZM266.94,61.05c-2.6,1.58-5.36,2.02-8.16,1.28-3.54-.92-6.38-3.53-7.53-5.56-.08-.14-.1-.3-.06-.46.05-.15.15-.28.3-.35l.97-.51c1.66,1.79,4.06,2.87,6.73,2.75,4.35-.2,7.93-3.73,8.18-8.08.05-.84-.02-1.65-.19-2.42l2.84-1.5c.09-.04.18-.06.27-.06.08,0,.16.01.23.05.16.07.29.21.33.37.89,3.1,2.3,10.72-3.91,14.49h0Z"/>
  </g>
</svg>